<?xml version="1.0" encoding="utf-8"?>
<!-- Generator: Adobe Illustrator 19.0.1, SVG Export Plug-In . SVG Version: 6.00 Build 0)  -->
<svg version="1.1" xmlns="http://www.w3.org/2000/svg" xmlns:xlink="http://www.w3.org/1999/xlink" x="0px" y="0px"
	 viewBox="0 0 193.2 245.1" style="enable-background:new 0 0 193.2 245.1;" xml:space="preserve">
<path class="st1" d="M78.8,7.7c-6.8,1.2-17.7,4.1-26.9,12.6c-5,4.6-11.2,12.4-17,38.6c-7.7,34.8-8.1,71.3-8.1,71.3
c-0.1,14.7,0.7,24.4-5.8,34.5c-5.2,8.1-7.1,5.9-10.5,15.1c-4.2,11.5-0.8,26.5,0.2,29.5c1.4,4,9.5,25.5,30.1,27.8
c13.2,1.5,27.8-5.4,33.6-17.9c6.8-14.5-0.2-35.4-8.3-43c-2.4-2.3-4.1-3-5.8-5.8c-5.3-8.8-3.5-16.3-1.6-22.7
c2.9-9.9,3-25.2-10.3-48.4c2.1-1.7,4.2-3.6,6.3-5.8c8-8.8,7.6-17.5,15.3-36.8c0.9-2.2,1.2-5.4,2.2-5.4c1.8,0,2.4,9.8,4.1,14.2
c3.2,8.4,17.5,16.4,65.5,14.8c0.7,0.7,2.4,2,3,3.9c0.9,2.4,0,4.4,0,5.1c-0.6,7.8,1,12.6-0.6,23.5c-2.6,17.2-10.6,32.8-14.6,40.4
c-3.5,6.9-3,7.5-4.3,15.3c-1.1,6.9,0.3,8.5-1.3,15.2c-2.3,9.9-6.7,14.9-7.3,21.7c-0.6,6.8,2.8,14.5,8.1,18.8
c10.3,8.3,27.9,4.7,36.8-1.9c2.6-2,6-5.3,12.4-8.1c5.7-2.5,7.2-1.8,9-3.4c5.8-5.5-2.5-25.6-7-40.8c-5.4-18.1-3.5-14.5-6.9-43.7
c-3.7-32.3-12.9-54.3-25.7-85.2c-3.4-8.2-5.3-12-9-16.3C118.7,7,91.9,6.8,78.8,7.7z"/>
<path class="st1" d="M44.3,238.8c-1.3,0-2.5-0.1-3.8-0.2c-9.1-1-16.9-5.7-23.3-13.8c-4.7-6.1-7.2-12.5-8-15
c-1.1-3.2-4.6-18.6-0.2-30.5c2.1-5.7,3.8-7.3,5.7-9.3c1.3-1.3,2.8-2.8,4.9-6.1c5.5-8.7,5.5-16.7,5.6-28.9c0-1.5,0-3.2,0-4.8
c0-0.4,0.4-37.1,8.1-71.6C39,32.8,45.1,24.4,50.8,19.2c7.3-6.7,16.6-11.1,27.7-12.9l0.1,0c17.8-1.2,42.1,0.9,56.8,17.6
c4,4.5,6,8.8,9.2,16.7c12.8,30.8,22,53.1,25.8,85.6c1,8.8,1.6,14.6,2,18.9c0.9,10.2,1.1,12,4.8,24.6c0.9,2.9,1.9,6,2.9,9.2
c4.7,14.4,9.1,28.1,3.7,33.1c-1.2,1.1-2.3,1.4-3.7,1.7c-1.3,0.3-3,0.8-5.7,1.9c-4.9,2.2-7.9,4.6-10.3,6.5c-0.7,0.5-1.3,1-1.8,1.4
c-9,6.6-27.4,11-38.6,1.9c-5.9-4.7-9.3-12.8-8.7-20.1c0.3-3.8,1.7-6.9,3.3-10.5c1.4-3.2,3-6.8,4-11.4c0.8-3.4,0.8-5.4,0.8-7.6
c0-1.9,0-4.1,0.5-7.5c0.3-1.6,0.4-2.9,0.6-3.9c0.6-4.4,0.9-6.1,3.8-11.8c3.8-7.5,11.9-23,14.4-40c1-6.4,0.8-10.7,0.6-14.8
c-0.1-2.8-0.2-5.4,0-8.6c0-0.3,0.1-0.6,0.2-0.9c0.2-0.9,0.5-2.2,0-3.6c-0.4-1.1-1.4-2.1-2.1-2.8c0,0-0.1-0.1-0.1-0.1
c-40,1.3-61.7-3.8-66.3-15.7c-0.8-2-1.3-4.8-1.8-7.5c-0.2-1.3-0.5-2.9-0.9-4.2c0,0.1,0,0.1-0.1,0.2c-0.2,0.8-0.5,1.8-0.8,2.6
c-2.8,7-4.5,12.6-6,17.4c-2.5,8.1-4.3,14-9.6,19.8c-1.7,1.8-3.5,3.6-5.5,5.2c10.5,18.7,13.8,35,9.8,48.5
c-2,6.8-3.4,13.5,1.5,21.5c1.1,1.7,2,2.5,3.4,3.7c0.6,0.5,1.4,1.1,2.2,1.9c8.4,7.9,15.9,29.2,8.6,44.7
C70.3,231.2,57.5,238.8,44.3,238.8z M78.9,9.2C68.5,11,59.7,15.1,52.9,21.4c-3.3,3.1-10.3,9.5-16.6,37.8c-7.6,34.3-8,70.6-8,71
c0,1.7,0,3.3,0,4.8c0,12.3,0,21.1-6,30.5c-2.2,3.5-3.9,5.2-5.3,6.6c-1.8,1.8-3.2,3.2-5,8.2c-4.1,11.1-0.8,25.6,0.2,28.5
c7.8,22.8,24,26.3,28.8,26.8c13.3,1.5,26.8-5.7,32.1-17.1c6.6-14.1-0.4-34.2-8-41.3c-0.7-0.7-1.4-1.2-2-1.7
c-1.4-1.2-2.8-2.2-4.1-4.4c-5.5-9-3.9-16.7-1.8-23.9c3.8-12.9,0.4-28.8-10.2-47.3l-0.6-1.1l1-0.8c2.2-1.7,4.2-3.6,6.1-5.7
c4.8-5.3,6.5-10.6,8.9-18.7c1.4-4.7,3.2-10.5,6.1-17.7c0.3-0.7,0.5-1.5,0.7-2.3c0.6-2.1,1.1-4,2.9-4c0,0,0,0,0,0
c2.3,0,2.9,3.1,3.8,8.3c0.5,2.6,1,5.2,1.7,6.9c4,10.5,25.6,15.1,64,13.8l0.7,0l0.5,0.5c0.1,0.1,0.3,0.3,0.5,0.5
c0.9,0.9,2.2,2.1,2.9,3.9c0.8,2.3,0.4,4.2,0.1,5.3c0,0.2-0.1,0.3-0.1,0.4c-0.2,3-0.1,5.6,0,8.3c0.2,4.3,0.4,8.7-0.7,15.4
c-2.6,17.5-10.8,33.3-14.7,40.9c-2.7,5.3-2.9,6.5-3.5,10.8c-0.2,1.1-0.3,2.4-0.6,4c-0.5,3.1-0.5,5-0.5,7c0,2.3,0,4.6-0.8,8.3
c-1.1,4.9-2.8,8.6-4.2,11.9c-1.5,3.4-2.8,6.3-3.1,9.6c-0.6,6.2,2.6,13.5,7.6,17.5c9.9,8.1,27,4,35-2c0.5-0.4,1.1-0.9,1.7-1.4
c2.4-1.9,5.7-4.6,10.9-6.9c2.9-1.3,4.8-1.8,6.1-2.1c1.4-0.3,1.9-0.5,2.4-1c4-3.7-0.7-18.3-4.5-30c-1-3.1-2-6.3-2.9-9.2
c-3.8-12.8-4-14.9-5-25.1c-0.4-4.3-0.9-10.1-2-18.8c-3.7-32.1-12.9-54.2-25.6-84.8c-3.4-8.3-5.3-11.9-8.7-15.9
C119.4,10,96.1,8.1,78.9,9.2z"/>
<path class="st1" d="M59.1,85.8c-0.4,0-0.7-0.2-0.9-0.6c-0.2-0.5,0-1.1,0.4-1.3c5-2.5,10.4-4.2,16-4.9c5.1-0.7,10.2-0.6,15.2,0.3
c0.5,0.1,0.9,0.6,0.8,1.2c-0.1,0.5-0.6,0.9-1.2,0.8c-4.8-0.8-9.7-0.9-14.6-0.3c-5.4,0.7-10.5,2.3-15.4,4.7
C59.4,85.8,59.3,85.8,59.1,85.8z"/>
<g id="眼鏡_1_">
<path class="st1" d="M58.7,100.4C58.7,100.4,58.6,100.4,58.7,100.4l-9.4-0.6c-0.6,0-1-0.5-0.9-1.1c0-0.6,0.5-1,1.1-0.9l9.3,0.6
c0.6,0,1,0.5,0.9,1.1C59.6,100,59.2,100.4,58.7,100.4z"/>
<path class="st1" d="M74.7,117.7c-0.1,0-0.2,0-0.2,0c-1.7,0-3.8-0.1-6.2-1.1c-7.3-3.1-9.7-11.8-10.6-15.5
c-0.4-1.5-0.7-3.1-0.9-4.7l0-0.4l0.2-0.4c0.8-1.2,1.8-2.4,2.9-3.4c1.8-1.7,4.2-3,6.9-4c2.8-1,7.4-2.1,12-2.2
c5.7-0.1,10,1.5,12.3,4.5c0.7,0.8,1.2,1.8,1.5,2.8l0,0.2c1.7,8.9-1,17.4-6.9,21.2C81.5,117.5,75.9,117.7,74.7,117.7z M59.1,96.5
c0.2,1.3,0.4,2.6,0.8,3.9v0c0.9,3.4,3,11.3,9.3,14c2,0.9,3.8,0.9,5.4,0.9c0.1,0,5.9,0.1,9.9-2.5c5.1-3.3,7.4-10.8,5.9-18.8
c-0.3-0.7-0.7-1.5-1.2-2.1c-4.2-5.3-15.6-3.8-21.7-1.6c-2.4,0.9-4.5,2.1-6.1,3.5C60.6,94.7,59.8,95.5,59.1,96.5z"/>
<path class="st1" d="M91.6,93.2c-0.3,0-0.7-0.2-0.9-0.5c-0.3-0.5-0.1-1.1,0.4-1.4c1.8-1.1,4.7-2.3,8.4-2.5c2.5-0.1,5,0.3,7.3,1.2
c0.5,0.2,0.8,0.8,0.6,1.3c-0.2,0.5-0.8,0.8-1.3,0.6c-2.1-0.8-4.3-1.2-6.5-1.1c-3.3,0.1-5.9,1.3-7.4,2.2
C92,93.1,91.8,93.2,91.6,93.2z"/>
<path class="st1" d="M122.7,113.3c-4.8,0-10-1.6-13.7-6.1c-6.1-7.5-2.9-17-2.7-17.4l0.1-0.3l0.2-0.2c2.7-2.3,8.5-6.2,16.7-6.3
c7.3-0.1,12.8,2.8,15.5,4.6l0.3,0.2l0.1,0.3c0.2,0.5,4.3,11.5-2.4,19.3c-3.1,3.6-7,4.7-8.3,5.1
C126.8,113,124.8,113.3,122.7,113.3z M108.4,90.8c-0.5,1.6-2.4,9,2.4,14.9c4.9,6,13.1,5.7,17.1,4.5c1.2-0.4,4.6-1.3,7.2-4.4
c5.3-6.1,2.7-14.8,2.1-16.7c-2.5-1.6-7.4-4.1-13.8-4C116.2,85.4,111,88.7,108.4,90.8z"/>
<path class="st1" d="M139.2,89.1c-0.5,0-0.9-0.4-1-0.9c-0.1-0.5,0.3-1.1,0.9-1.1c1.4-0.2,4.1-1.6,6.7-3.4
c0.5-0.3,0.9-0.3,1.2-0.1c0.3,0.2,0.5,0.5,0.5,0.9c0.1,0.4,0,0.8-0.3,1.1c-0.3,0.2-0.7,0.3-1.1,0.2c-2.2,1.5-4.9,3-6.8,3.2
C139.3,89.1,139.3,89.1,139.2,89.1z"/>
</g>
<path class="st1" d="M69.7,96.3c-0.4,0-0.7-0.2-0.9-0.6c-0.2-0.5,0-1.1,0.5-1.3c2.3-1.1,4.8-1.8,7.3-2c2.4-0.3,4.8-0.2,7.2,0.3
c0.5,0.1,0.9,0.6,0.8,1.2s-0.6,0.9-1.2,0.8c-2.2-0.4-4.4-0.5-6.6-0.3c-2.3,0.3-4.6,0.9-6.7,1.9C70,96.3,69.8,96.3,69.7,96.3z"/>
<path class="st1" d="M114,93.4c-0.3,0-0.6-0.1-0.8-0.4c-0.4-0.4-0.3-1.1,0.1-1.4c1.3-1.1,4.1-3,8.1-3.3c4-0.4,7.1,0.9,8.7,1.7
c0.5,0.3,0.7,0.9,0.4,1.4c-0.3,0.5-0.9,0.7-1.4,0.4c-1.3-0.7-4-1.8-7.5-1.5c-3.4,0.3-5.9,2-7,2.9C114.4,93.3,114.2,93.4,114,93.4z
"/>
<path class="st1" d="M117.5,91c-0.2,0.6,0,1.4,0.4,1.9c0.8,1,2.4,1.3,3.5,0.4c1.2-1,1.1-2.8,0.2-3.6C120.4,88.7,118,89.5,117.5,91
z"/>
<path class="st1" d="M74.6,94.5c-0.3,0.6-0.2,1.4,0.2,1.9c0.7,1,2.5,1.5,3.8,0.7c1.4-0.8,1.4-2.7,0.6-3.6
C78,92.5,75.2,93.1,74.6,94.5z"/>
<path class="st1" d="M100.6,121.8C100.6,121.8,100.6,121.8,100.6,121.8c-3,0-4.6-2.4-4.8-2.7c-0.3-0.5-0.2-1.1,0.3-1.4
c0.5-0.3,1.1-0.2,1.4,0.3c0,0.1,1.1,1.7,3.1,1.7c0,0,0,0,0,0c1.4,0,2.8-0.9,3.4-2.3c0.2-0.5,0.8-0.8,1.3-0.5
c0.5,0.2,0.8,0.8,0.5,1.3C104.9,120.4,102.8,121.8,100.6,121.8z"/>
<path class="st1" d="M99.6,142.2c-4.3,0-9-1.2-13.2-4.6c-0.7-0.5-0.9-1.5-0.6-2.3c0.3-0.7,1-1.2,1.8-1.1l0,0
c11.2,1.5,14.6,1.5,25.9-1.3c0.7-0.2,1.5,0.1,1.9,0.7c0.5,0.7,0.4,1.7-0.2,2.4C113,138.9,106.7,142.2,99.6,142.2z M88,136.3
c9.8,7.6,22.1,2.7,25.5-1.3C102.6,137.7,98.7,137.7,88,136.3z"/>
<path class="st1" d="M100.9,165.9c-11.6,0-22.2-4.2-26.6-6.3c-9-4.1-14-11.6-17.4-16.6c-0.3-0.5-0.6-0.9-0.9-1.3
c-3.2-4.7-8.7-41.1-9.3-45.2c-0.1-0.5,0.3-1.1,0.8-1.1c0.5-0.1,1.1,0.3,1.1,0.8c1.6,11.1,6.5,40.8,9,44.4c0.3,0.4,0.6,0.8,0.9,1.3
c3.2,4.8,8.1,12,16.6,15.9c7.2,3.3,32.1,13,48.5-2.2c15.2-14.1,15.8-16.3,16.3-18.1l0.1-0.3c0.5-1.7,6.5-33.9,3.9-52.3
c-0.1-0.5,0.3-1.1,0.9-1.1c0.5-0.1,1.1,0.3,1.1,0.9c2.6,18.7-3.5,51.4-4,53.1l-0.1,0.2c-0.6,2.2-1.3,4.5-16.9,19
C117.8,163.7,109.1,165.9,100.9,165.9z"/>
</svg>
